<svg xmlns="http://www.w3.org/2000/svg" version="1.1" xmlns:xlink="http://www.w3.org/1999/xlink" xmlns:svgjs="http://svgjs.dev/svgjs" width="100%" height="100%" viewBox="0 0 1000 600"><rect width="1000" height="600" x="0" y="0" fill="#243b55"/><g><circle r="166.66666666666666" cx="375.1757456461588" cy="397.3979723956876" fill="#616161" transform="matrix(0.5994942133785578,0,0,0.5994942133785578,0,61.76220673264331)"/><path d="M383.94664804169025 472.39798161076436L365.97900659335266 472.39798161076436Q361.46580755656646 454.81353630705956 356.1862162305146 443.78600281151586L356.1862162305146 443.78600281151586L311.6077314048998 348.15727605093235Q304.6676234521059 333.42551315727167 296.49277236660635 322.39797966172796L296.49277236660635 322.39797966172796L324.67897767181836 322.39797966172796Q328.38320706993534 337.51293870002144 334.51434538406005 350.58418496694003L334.51434538406005 350.58418496694003L378.241283221602 446.63868522155997L421.58502491451117 350.58418496694003Q428.0993593732686 336.27819556731583 431.3778152773492 322.39797966172796L431.3778152773492 322.39797966172796L453.85865576247306 322.39797966172796Q447.72751744834835 330.57283074722756 438.31792323014315 348.15727605093235L438.31792323014315 348.15727605093235L394.16521189856473 443.78600281151586Q388.03407358444 457.2830225724709 383.94664804169025 472.39798161076436L383.94664804169025 472.39798161076436Z " fill="#ffffff" transform="matrix(0.5994942133785578,0,0,0.5994942133785578,0,61.76220673264331)"/><path d="M710.309735769875 470.4084835707641L692.8187154874694 470.4084835707641Q688.4252364591874 453.2904945266088 683.2856949544047 442.55548444807073L683.2856949544047 442.55548444807073L639.8897275712798 349.46346654692593Q633.1337173674121 335.1224878319677 625.1757176180712 324.3874777534296L625.1757176180712 324.3874777534296L652.6142375871531 324.3874777534296Q656.2202062235732 339.1014877066382 662.1887060355789 351.8259977225115L662.1887060355789 351.8259977225115L704.7557151114809 445.33249477726787L746.9496929491324 351.8259977225115Q753.2912239993885 337.89949816116484 756.4827134821971 324.3874777534296L756.4827134821971 324.3874777534296L778.3672127928849 324.3874777534296Q772.398712980879 332.34547750277056 763.2387236860648 349.46346654692593L763.2387236860648 349.46346654692593L720.2572354565513 442.55548444807073Q714.2887356445456 455.69447361755556 710.309735769875 470.4084835707641L710.309735769875 470.4084835707641ZM890.1936884372699 391.242965230966L890.1936884372699 441.35349490259733Q890.1936884372699 453.70497368022035 892.970698766467 470.4084835707641L892.970698766467 470.4084835707641L867.8947099729706 470.4084835707641Q868.6822203648326 468.0045044798174 868.8894599416383 465.22749415062026Q869.096699518444 462.4504838214231 869.4697307566944 459.67347349222604L869.4697307566944 459.67347349222604Q858.361689439906 472.39798350809934 840.0417108502772 472.39798350809934L840.0417108502772 472.39798350809934Q816.5821907558659 472.39798350809934 802.4484516177134 455.27999446394404Q788.314712479561 438.1620054197887 788.314712479561 417.2722560777687Q788.314712479561 396.3825067357487 801.8267328872962 379.30596560695454L801.8267328872962 379.30596560695454Q816.1677116022544 362.1879765627992 838.052210912942 362.1879765627992Q859.9367102236297 362.1879765627992 869.096699518444 374.12497618681067L869.096699518444 374.12497618681067Q869.096699518444 370.51900755039054 867.8947099729706 366.95448682933153L867.8947099729706 366.95448682933153L892.970698766467 362.1879765627992Q890.1936884372699 378.891486453343 890.1936884372699 391.242965230966L890.1936884372699 391.242965230966ZM862.3406893145764 386.0619758108221L862.3406893145764 386.0619758108221Q853.5537312580125 374.12497618681067 839.8344712734715 374.12497618681067Q826.1152112889306 374.12497618681067 818.1572115395896 386.0619758108221L818.1572115395896 386.0619758108221Q809.4117013983868 396.3825067357487 809.4117013983868 417.1064644163241L809.4117013983868 417.1064644163241Q809.4117013983868 437.7889741815384 818.1572115395896 448.5239842600765L818.1572115395896 448.5239842600765Q826.1152112889306 460.0465047304764 839.8344712734715 460.0465047304764Q853.5537312580125 460.0465047304764 862.1334497377707 448.938463413688Q870.6717203021677 437.7889741815384 870.6717203021677 417.1064644163241L870.6717203021677 417.1064644163241Q870.6717203021677 396.3825067357487 862.3406893145764 386.0619758108221ZM951.4537073410507 470.4084835707641L926.3777185475545 470.4084835707641Q928.7816976385013 456.0675048558059 928.7816976385013 441.35349490259733L928.7816976385013 441.35349490259733L928.7816976385013 396.00947549749833Q928.7816976385013 381.6684967825401 926.3777185475545 366.95448682933153L926.3777185475545 366.95448682933153L951.4537073410507 362.1879765627992Q950.2517177955774 366.1669764374697 949.4642074037156 374.91248657867254L949.4642074037156 374.91248657867254Q959.8261862440032 362.1879765627992 975.3277065890736 362.1879765627992L975.3277065890736 362.1879765627992Q984.0732167302765 362.1879765627992 992.0312164796175 366.1669764374697L992.0312164796175 366.1669764374697L992.0312164796175 388.0514757481573L991.2437060877555 388.0514757481573Q983.2857063384147 374.12497618681067 971.5559462912089 374.12497618681067Q959.8261862440032 374.12497618681067 952.6556968865242 386.43500704907245L952.6556968865242 386.43500704907245Q948.2622178582421 392.4035068610782 948.2622178582421 407.1589647296479L948.2622178582421 407.1589647296479L948.2622178582421 441.35349490259733Q948.2622178582421 456.89646316302895 951.4537073410507 470.4084835707641L951.4537073410507 470.4084835707641ZM1127.317212218414 374.12497618681067L1127.317212218414 374.12497618681067Q1102.6557025785291 374.12497618681067 1102.6557025785291 407.1589647296479L1102.6557025785291 407.1589647296479L1102.6557025785291 441.35349490259733Q1102.6557025785291 456.89646316302895 1105.8471920613379 470.4084835707641L1105.8471920613379 470.4084835707641L1080.35672411423 470.4084835707641Q1083.1751823587883 456.0675048558059 1083.1751823587883 441.35349490259733L1083.1751823587883 441.35349490259733L1083.1751823587883 407.1589647296479Q1083.1751823587883 392.03047562282785 1078.7817033305062 386.0619758108221L1078.7817033305062 386.0619758108221Q1072.0256931266385 374.12497618681067 1057.8919539884862 374.12497618681067Q1043.7582148503338 374.12497618681067 1037.0022046464662 385.6474966572106L1037.0022046464662 385.6474966572106Q1032.608725618184 392.4035068610782 1032.608725618184 407.1589647296479L1032.608725618184 407.1589647296479L1032.608725618184 441.35349490259733Q1032.608725618184 456.89646316302895 1035.8002151009928 470.4084835707641L1035.8002151009928 470.4084835707641L1010.7242263074966 470.4084835707641Q1013.1282053984432 456.0675048558059 1013.1282053984432 441.35349490259733L1013.1282053984432 441.35349490259733L1013.1282053984432 396.00947549749833Q1013.1282053984432 381.6684967825401 1010.7242263074966 366.95448682933153L1010.7242263074966 366.95448682933153L1035.8002151009928 362.1879765627992Q1034.5982255555193 366.1669764374697 1033.8107151636577 374.91248657867254L1033.8107151636577 374.91248657867254Q1045.3746835494187 362.1879765627992 1064.0676933772977 362.1879765627992Q1082.760703205177 362.1879765627992 1094.2832236755767 378.10397606148115L1094.2832236755767 378.10397606148115Q1107.4222128450615 362.1879765627992 1129.3067121557492 362.1879765627992Q1151.191211466437 362.1879765627992 1163.5426902440597 377.3164656696193L1163.5426902440597 377.3164656696193Q1172.2882003852626 389.25346529363077 1172.2882003852626 407.1589647296479L1172.2882003852626 407.1589647296479L1172.2882003852626 441.35349490259733Q1172.2882003852626 456.89646316302895 1175.0652107144597 470.4084835707641L1175.0652107144597 470.4084835707641L1149.9892219209635 470.4084835707641Q1153.180711403772 456.89646316302895 1153.180711403772 441.35349490259733L1153.180711403772 441.35349490259733L1153.180711403772 407.1589647296479Q1153.180711403772 393.2324651683012 1148.8286802908513 386.0619758108221L1148.8286802908513 386.0619758108221Q1141.2437117797606 374.12497618681067 1127.317212218414 374.12497618681067ZM1303.5951962493884 391.242965230966L1303.5951962493884 441.35349490259733Q1303.5951962493884 453.70497368022035 1306.3722065785855 470.4084835707641L1306.3722065785855 470.4084835707641L1281.2962177850893 470.4084835707641Q1282.1251760923124 468.0045044798174 1282.290967753757 465.22749415062026Q1282.4982073305628 462.4504838214231 1282.9126864841742 459.67347349222604L1282.9126864841742 459.67347349222604Q1271.7631972520246 472.39798350809934 1253.443218662396 472.39798350809934L1253.443218662396 472.39798350809934Q1229.9836985679844 472.39798350809934 1215.849959429832 455.27999446394404Q1201.7162202916797 438.1620054197887 1201.7162202916797 417.2722560777687Q1201.7162202916797 396.3825067357487 1215.269688614776 379.30596560695454L1215.269688614776 379.30596560695454Q1229.569219414373 362.1879765627992 1251.4537187250608 362.1879765627992Q1273.3382180357482 362.1879765627992 1282.4982073305628 374.12497618681067L1282.4982073305628 374.12497618681067Q1282.4982073305628 370.51900755039054 1281.2962177850893 366.95448682933153L1281.2962177850893 366.95448682933153L1306.3722065785855 362.1879765627992Q1303.5951962493884 378.891486453343 1303.5951962493884 391.242965230966L1303.5951962493884 391.242965230966ZM1275.7421971266951 386.0619758108221L1275.7421971266951 386.0619758108221Q1266.9966869854923 374.12497618681067 1253.2774270009513 374.12497618681067Q1239.5167191010494 374.12497618681067 1231.5587193517085 386.0619758108221L1231.5587193517085 386.0619758108221Q1222.8132092105056 396.3825067357487 1222.8132092105056 417.1064644163241L1222.8132092105056 417.1064644163241Q1222.8132092105056 437.7889741815384 1231.5587193517085 448.5239842600765L1231.5587193517085 448.5239842600765Q1239.5167191010494 460.0465047304764 1253.2774270009513 460.0465047304764Q1266.9966869854923 460.0465047304764 1275.5349575498894 448.938463413688Q1284.1146760296476 437.7889741815384 1284.1146760296476 417.1064644163241L1284.1146760296476 417.1064644163241Q1284.1146760296476 396.3825067357487 1275.7421971266951 386.0619758108221ZM1342.18320545062 322.39797781609434L1362.8657152158341 322.39797781609434Q1359.7156736483869 336.69750861569145 1359.7156736483869 362.1879765627992L1359.7156736483869 362.1879765627992L1345.3746949334286 362.1879765627992Q1345.3746949334286 335.53696698557917 1342.18320545062 322.39797781609434L1342.18320545062 322.39797781609434ZM1446.051681345664 387.63699659454585L1445.2641709538022 387.63699659454585Q1439.2956711417964 374.12497618681067 1427.358671517785 374.12497618681067L1427.358671517785 374.12497618681067Q1422.177682097641 374.12497618681067 1417.7842030693591 376.694746939202Q1413.4321719564384 379.30596560695454 1413.4321719564384 385.85473623401634Q1413.4321719564384 392.4035068610782 1423.3796716431145 398.37200667308394L1423.3796716431145 398.37200667308394L1441.2851710791317 409.1484646669831Q1459.5637017533993 419.88347474552126 1459.5637017533993 436.79422421287074Q1459.5637017533993 453.70497368022035 1448.0411812829993 463.03075463647923Q1436.4772128972384 472.39798350809934 1422.5507133358915 472.39798350809934L1422.5507133358915 472.39798350809934Q1405.8472034453478 471.61047311623753 1401.8682035706772 469.20649402529074L1401.8682035706772 469.20649402529074Q1393.1226934294743 463.6524733668965 1389.5581727084152 460.0465047304764L1389.5581727084152 460.0465047304764L1389.5581727084152 434.5974846987298L1390.3456831002773 434.5974846987298Q1399.5056723950916 460.0465047304764 1422.177682097641 460.0465047304764L1422.177682097641 460.0465047304764Q1430.9231922388442 460.0465047304764 1436.4772128972384 454.49248407208216Q1442.0726814709935 448.938463413688 1442.0726814709935 439.9857136956794Q1442.0726814709935 431.0329639776708 1432.1251817843174 425.0644641656651L1432.1251817843174 425.0644641656651L1416.5822135238857 415.9044748708507Q1396.6872141505335 403.9674752468393 1396.6872141505335 387.2639653562955L1396.6872141505335 387.2639653562955Q1396.6872141505335 375.69999697053436 1406.2616825989592 367.7419972211934L1406.2616825989592 367.7419972211934Q1413.4321719564384 362.1879765627992 1425.3691715804498 362.1879765627992L1425.3691715804498 362.1879765627992Q1437.3061712044612 362.1879765627992 1446.051681345664 367.7419972211934L1446.051681345664 367.7419972211934L1446.051681345664 387.63699659454585Z " fill="#ffffff" transform="matrix(0.5994942133785578,0,0,0.5994942133785578,0,61.76220673264331)"/></g></svg>